<mxfile host="app.diagrams.net" modified="2022-01-01T16:07:17.543Z" agent="5.0 (Windows NT 10.0; Win64; x64) AppleWebKit/537.36 (KHTML, like Gecko) Chrome/96.0.4664.110 Safari/537.36 Edg/96.0.1054.62" etag="3ZNpgaAb9HcDtXZ5QYev" version="16.0.0" type="github">
  <diagram id="RWPLBy5S2MeMu81b1pbC" name="第 1 页">
    <mxGraphModel dx="1038" dy="547" grid="1" gridSize="10" guides="1" tooltips="1" connect="1" arrows="1" fold="1" page="1" pageScale="1" pageWidth="827" pageHeight="1169" background="#F4F1DE" math="0" shadow="0">
      <root>
        <mxCell id="0" />
        <mxCell id="1" parent="0" />
        <mxCell id="j2t_bMQOyzf5G5i8x4GM-6" value="" style="edgeStyle=orthogonalEdgeStyle;rounded=1;sketch=0;orthogonalLoop=1;jettySize=auto;html=1;fontSize=14;fontStyle=1;labelBackgroundColor=#F4F1DE;strokeColor=#E07A5F;fontColor=#393C56;" edge="1" parent="1" source="j2t_bMQOyzf5G5i8x4GM-1" target="j2t_bMQOyzf5G5i8x4GM-2">
          <mxGeometry relative="1" as="geometry" />
        </mxCell>
        <mxCell id="j2t_bMQOyzf5G5i8x4GM-1" value="Java源码" style="rounded=1;whiteSpace=wrap;html=1;sketch=0;fontSize=14;fontStyle=1;fillColor=#F2CC8F;strokeColor=#E07A5F;fontColor=#393C56;" vertex="1" parent="1">
          <mxGeometry x="15" y="240" width="120" height="60" as="geometry" />
        </mxCell>
        <mxCell id="j2t_bMQOyzf5G5i8x4GM-7" value="" style="edgeStyle=orthogonalEdgeStyle;rounded=1;sketch=0;orthogonalLoop=1;jettySize=auto;html=1;fontSize=14;fontStyle=1;labelBackgroundColor=#F4F1DE;strokeColor=#E07A5F;fontColor=#393C56;" edge="1" parent="1" source="j2t_bMQOyzf5G5i8x4GM-2" target="j2t_bMQOyzf5G5i8x4GM-3">
          <mxGeometry relative="1" as="geometry" />
        </mxCell>
        <mxCell id="j2t_bMQOyzf5G5i8x4GM-2" value="解析与填充符号表过程" style="rounded=1;whiteSpace=wrap;html=1;sketch=0;fontSize=14;fontStyle=1;fillColor=#F2CC8F;strokeColor=#E07A5F;fontColor=#393C56;" vertex="1" parent="1">
          <mxGeometry x="185" y="240" width="120" height="60" as="geometry" />
        </mxCell>
        <mxCell id="j2t_bMQOyzf5G5i8x4GM-8" value="" style="edgeStyle=orthogonalEdgeStyle;rounded=1;sketch=0;orthogonalLoop=1;jettySize=auto;html=1;fontSize=14;fontStyle=1;labelBackgroundColor=#F4F1DE;strokeColor=#E07A5F;fontColor=#393C56;" edge="1" parent="1" source="j2t_bMQOyzf5G5i8x4GM-3" target="j2t_bMQOyzf5G5i8x4GM-4">
          <mxGeometry relative="1" as="geometry" />
        </mxCell>
        <mxCell id="j2t_bMQOyzf5G5i8x4GM-3" value="注解处理" style="rounded=1;whiteSpace=wrap;html=1;sketch=0;fillColor=#F2CC8F;strokeColor=#E07A5F;fontSize=14;fontStyle=1;fontColor=#393C56;" vertex="1" parent="1">
          <mxGeometry x="355" y="240" width="120" height="60" as="geometry" />
        </mxCell>
        <mxCell id="j2t_bMQOyzf5G5i8x4GM-9" value="" style="edgeStyle=orthogonalEdgeStyle;rounded=1;sketch=0;orthogonalLoop=1;jettySize=auto;html=1;fontSize=14;fontStyle=1;labelBackgroundColor=#F4F1DE;strokeColor=#E07A5F;fontColor=#393C56;" edge="1" parent="1" source="j2t_bMQOyzf5G5i8x4GM-4" target="j2t_bMQOyzf5G5i8x4GM-5">
          <mxGeometry relative="1" as="geometry" />
        </mxCell>
        <mxCell id="j2t_bMQOyzf5G5i8x4GM-4" value="分析与字节码生成" style="rounded=1;whiteSpace=wrap;html=1;sketch=0;fontSize=14;fontStyle=1;fillColor=#F2CC8F;strokeColor=#E07A5F;fontColor=#393C56;" vertex="1" parent="1">
          <mxGeometry x="525" y="240" width="120" height="60" as="geometry" />
        </mxCell>
        <mxCell id="j2t_bMQOyzf5G5i8x4GM-5" value="Class文件" style="rounded=1;whiteSpace=wrap;html=1;sketch=0;fontSize=14;fontStyle=1;fillColor=#F2CC8F;strokeColor=#E07A5F;fontColor=#393C56;" vertex="1" parent="1">
          <mxGeometry x="692" y="240" width="120" height="60" as="geometry" />
        </mxCell>
        <mxCell id="j2t_bMQOyzf5G5i8x4GM-11" value="" style="endArrow=none;html=1;rounded=1;sketch=0;fontSize=14;fontStyle=1;labelBackgroundColor=#F4F1DE;strokeColor=#E07A5F;fontColor=#393C56;" edge="1" parent="1">
          <mxGeometry width="50" height="50" relative="1" as="geometry">
            <mxPoint x="160" y="170" as="sourcePoint" />
            <mxPoint x="500" y="170" as="targetPoint" />
          </mxGeometry>
        </mxCell>
        <mxCell id="j2t_bMQOyzf5G5i8x4GM-12" value="" style="endArrow=classic;html=1;rounded=1;sketch=0;fontSize=14;fontStyle=1;labelBackgroundColor=#F4F1DE;strokeColor=#E07A5F;fontColor=#393C56;" edge="1" parent="1">
          <mxGeometry width="50" height="50" relative="1" as="geometry">
            <mxPoint x="160" y="170" as="sourcePoint" />
            <mxPoint x="160" y="270" as="targetPoint" />
          </mxGeometry>
        </mxCell>
        <mxCell id="j2t_bMQOyzf5G5i8x4GM-13" value="" style="endArrow=none;html=1;rounded=1;sketch=0;fontSize=14;fontStyle=1;labelBackgroundColor=#F4F1DE;strokeColor=#E07A5F;fontColor=#393C56;" edge="1" parent="1">
          <mxGeometry width="50" height="50" relative="1" as="geometry">
            <mxPoint x="500" y="270" as="sourcePoint" />
            <mxPoint x="500" y="170" as="targetPoint" />
          </mxGeometry>
        </mxCell>
      </root>
    </mxGraphModel>
  </diagram>
</mxfile>
